<svg id="bd4da15b-5cf0-4e39-9346-fe28811a9413" data-name="Ebene 1"
    xmlns="http://www.w3.org/2000/svg" viewBox="0 0 357.55 800">
    <g id="a84bfe78-2a90-4c8b-942e-838acfe6f159" data-name="bfb532f3-8425-4836-957c-8431149ae5d2">
        <g id="ff847400-6761-4604-95d6-df677776f67e"
            data-name="bca55e49-646b-477e-9b8e-18dd7bb18125">
            <path
                d="M94,108.86Q80.19,90.79,58.88,90.79q-13.89,0-30.09,11.57t-16.2,34.73a41,41,0,0,0,3.08,15.42A61.15,61.15,0,0,0,24.93,168L205.64,411.3v0l11.3-15.09c7.2-9.26,24.87-31.57,24.87-53.63,0-33.79-18.85-60.74-26-69Z"
                fill="#fff" opacity="0.05" style="isolation:isolate" />
            <path
                d="M281.55,362.73,223,283.48c8.31,12.68,18.75,34,18.75,59.18,0,22.06-17.68,44.37-24.87,53.63L26.48,657.11q-13.89,15.43-13.89,32.44,0,18.53,13.89,30.1c9.26,7.67,19.52,11.53,30.87,11.53q21.6,0,35.48-20.06L279.9,461.21c7.21-9.26,18.9-27.55,18.9-49.84C298.8,387.56,288.76,371,281.55,362.73Z"
                fill="#fff" opacity="0.1" style="isolation:isolate" />
        </g>
        <rect width="357.55" height="800" fill="none" />
        <rect width="357.55" height="800" fill="none" />
    </g>
</svg>